<?xml version="1.0" standalone="no"?>
<!DOCTYPE svg PUBLIC "-//W3C//DTD SVG 20010904//EN"
 "http://www.w3.org/TR/2001/REC-SVG-20010904/DTD/svg10.dtd">
<svg version="1.0" xmlns="http://www.w3.org/2000/svg"
 width="16.000000pt" height="16.000000pt" viewBox="0 0 16.000000 16.000000"
 preserveAspectRatio="xMidYMid meet">
<metadata>
Created by potrace 1.11, written by Peter Selinger 2001-2013
</metadata>
<g transform="translate(0.000000,16.000000) scale(0.001422,-0.001422)"
fill="#000000" stroke="none">
<path d="M0 5625 l0 -5625 5625 0 5625 0 0 5625 0 5625 -5625 0 -5625 0 0
-5625z m3348 2748 l-3 -518 -597 -3 -598 -2 0 -820 0 -820 560 0 560 0 0 -525
0 -525 -560 0 -560 0 0 -1400 0 -1400 -580 0 -580 0 0 3265 0 3265 1180 0
1180 0 -2 -517z m1682 -590 c244 -610 446 -1112 450 -1116 4 -4 211 494 461
1108 l454 1115 453 0 452 0 0 -3265 0 -3265 -570 0 -570 0 -2 1065 -3 1066
-128 -478 c-71 -263 -165 -612 -209 -776 l-81 -297 -271 0 -271 0 -195 742
-195 743 -3 -1033 -2 -1032 -570 0 -570 0 0 3265 0 3265 464 0 464 0 442
-1107z m4792 1074 c201 -74 343 -228 410 -449 22 -72 22 -82 26 -755 l3 -683
-581 0 -580 0 0 440 0 440 -155 0 -155 0 0 -417 0 -418 618 -871 c339 -479
641 -909 670 -956 69 -114 125 -235 154 -333 l23 -80 0 -920 c0 -853 -1 -925
-18 -985 -56 -205 -181 -362 -352 -445 -135 -66 -121 -65 -946 -65 -710 0
-750 1 -823 20 -123 31 -209 81 -306 179 -96 97 -137 169 -173 304 -22 81 -22
91 -22 857 l0 775 578 3 577 2 0 -550 0 -550 155 0 155 0 0 578 0 577 -659
942 c-680 972 -738 1062 -783 1219 l-23 79 0 755 c0 692 1 760 18 820 57 209
195 380 375 462 127 58 108 57 957 55 l780 -2 77 -28z m-14 -2149 l3 -38 -50
0 -51 0 0 -151 0 -150 -47 3 -48 3 -3 148 -3 147 -44 0 -45 0 0 40 0 41 143
-3 142 -3 3 -37z m209 -82 c18 -65 34 -121 36 -123 2 -2 16 45 32 104 38 149
34 143 110 143 l65 0 0 -190 0 -190 -45 0 -44 0 -3 127 -3 127 -35 -125 -35
-124 -41 -3 -41 -3 -36 123 -36 123 0 -122 -1 -123 -45 0 -45 0 0 190 0 191
68 -3 67 -3 32 -119z"/>
</g>
</svg>
